<svg xmlns="http://www.w3.org/2000/svg" width="646" height="896" viewBox="0 0 646 896" font-family="-apple-system, 'Segoe UI', Inter, Helvetica, Arial, sans-serif">
<defs><marker id="arrow" viewBox="0 0 10 10" refX="8" refY="5" markerWidth="7" markerHeight="7" orient="auto-start-reverse"><path d="M0,0 L10,5 L0,10 z" fill="#94a3b8"/></marker></defs>
<rect x="0" y="0" width="646" height="896" fill="#ffffff"/>
<rect x="50.0" y="362.0" width="196.0" height="76.0" rx="14" fill="#f1f5f9" stroke="#cbd5e1" stroke-width="1.5"/>
<rect x="42.0" y="354.0" width="196.0" height="76.0" rx="14" fill="#f1f5f9" stroke="#cbd5e1" stroke-width="1.5"/>
<rect x="34.0" y="346.0" width="196.0" height="76.0" rx="14" fill="#ffffff" stroke="#94a3b8" stroke-width="1.5" stroke-dasharray="7 6"/>
<rect x="252.0" y="365.0" width="66" height="38" rx="19" fill="#4f46e5"/>
<text x="285.0" y="390.0" text-anchor="middle" font-size="17" font-weight="700" fill="#ffffff">× 12</text>
<rect x="282.0" y="362.0" width="196.0" height="76.0" rx="14" fill="#f1f5f9" stroke="#cbd5e1" stroke-width="1.5"/>
<rect x="274.0" y="354.0" width="196.0" height="76.0" rx="14" fill="#f1f5f9" stroke="#cbd5e1" stroke-width="1.5"/>
<rect x="266.0" y="346.0" width="196.0" height="76.0" rx="14" fill="#ffffff" stroke="#94a3b8" stroke-width="1.5" stroke-dasharray="7 6"/>
<rect x="484.0" y="365.0" width="66" height="38" rx="19" fill="#4f46e5"/>
<text x="517.0" y="390.0" text-anchor="middle" font-size="17" font-weight="700" fill="#ffffff">× 12</text>
<path d="M132.0,96.0 C132.0,121.0 132.0,121.0 132.0,146.0" fill="none" stroke="#94a3b8" stroke-width="1.4" marker-end="url(#arrow)"/>
<path d="M132.0,200.0 C132.0,225.0 132.0,225.0 132.0,250.0" fill="none" stroke="#94a3b8" stroke-width="1.4" marker-end="url(#arrow)"/>
<path d="M132.0,304.0 C132.0,329.0 132.0,329.0 132.0,354.0" fill="none" stroke="#94a3b8" stroke-width="1.4" marker-end="url(#arrow)"/>
<path d="M132.0,512.0 C132.0,537.0 132.0,537.0 132.0,562.0" fill="none" stroke="#94a3b8" stroke-width="1.4" marker-end="url(#arrow)"/>
<path d="M364.0,96.0 C364.0,121.0 364.0,121.0 364.0,146.0" fill="none" stroke="#94a3b8" stroke-width="1.4" marker-end="url(#arrow)"/>
<path d="M364.0,200.0 C364.0,225.0 364.0,225.0 364.0,250.0" fill="none" stroke="#94a3b8" stroke-width="1.4" marker-end="url(#arrow)"/>
<path d="M364.0,304.0 C364.0,329.0 364.0,329.0 364.0,354.0" fill="none" stroke="#94a3b8" stroke-width="1.4" marker-end="url(#arrow)"/>
<path d="M364.0,512.0 C364.0,537.0 364.0,537.0 364.0,562.0" fill="none" stroke="#94a3b8" stroke-width="1.4" marker-end="url(#arrow)"/>
<path d="M132.0,616.0 C132.0,641.0 248.0,641.0 248.0,666.0" fill="none" stroke="#94a3b8" stroke-width="1.4" marker-end="url(#arrow)"/>
<path d="M364.0,616.0 C364.0,641.0 248.0,641.0 248.0,666.0" fill="none" stroke="#94a3b8" stroke-width="1.4" marker-end="url(#arrow)"/>
<path d="M248.0,720.0 C248.0,745.0 248.0,745.0 248.0,770.0" fill="none" stroke="#94a3b8" stroke-width="1.4" marker-end="url(#arrow)"/>
<path d="M132.0,408.0 C132.0,433.0 132.0,433.0 132.0,458.0" fill="none" stroke="#94a3b8" stroke-width="1.4" marker-end="url(#arrow)"/>
<path d="M364.0,408.0 C364.0,433.0 364.0,433.0 364.0,458.0" fill="none" stroke="#94a3b8" stroke-width="1.4" marker-end="url(#arrow)"/>
<rect x="48.0" y="48.0" width="168" height="48" rx="10" fill="rgb(224, 247, 232)" stroke="#22c55e" stroke-width="1.5"/>
<text x="132.0" y="76.5" text-anchor="middle" font-size="13" font-weight="600" fill="#1f2937">image</text>
<rect x="48.0" y="152.0" width="168" height="48" rx="10" fill="rgb(235, 235, 236)" stroke="#71717a" stroke-width="1.5"/>
<text x="132.0" y="180.5" text-anchor="middle" font-size="13" font-weight="600" fill="#1f2937">patch_embed_16</text>
<rect x="48.0" y="256.0" width="168" height="48" rx="10" fill="rgb(254, 241, 221)" stroke="#f59e0b" stroke-width="1.5"/>
<text x="132.0" y="284.5" text-anchor="middle" font-size="13" font-weight="600" fill="#1f2937">vis_pos</text>
<rect x="48.0" y="360.0" width="168" height="48" rx="10" fill="rgb(243, 231, 254)" stroke="#a855f7" stroke-width="1.5"/>
<text x="132.0" y="388.5" text-anchor="middle" font-size="13" font-weight="600" fill="#1f2937">vis_block</text>
<rect x="48.0" y="464.0" width="168" height="48" rx="10" fill="rgb(233, 236, 239)" stroke="#64748b" stroke-width="1.5"/>
<text x="132.0" y="492.5" text-anchor="middle" font-size="13" font-weight="600" fill="#1f2937">vis_norm</text>
<rect x="48.0" y="568.0" width="168" height="48" rx="10" fill="rgb(233, 234, 253)" stroke="#6366f1" stroke-width="1.5"/>
<text x="132.0" y="596.5" text-anchor="middle" font-size="13" font-weight="600" fill="#1f2937">vis_pool</text>
<rect x="280.0" y="48.0" width="168" height="48" rx="10" fill="rgb(224, 247, 232)" stroke="#22c55e" stroke-width="1.5"/>
<text x="364.0" y="76.5" text-anchor="middle" font-size="13" font-weight="600" fill="#1f2937">tokens</text>
<rect x="280.0" y="152.0" width="168" height="48" rx="10" fill="rgb(254, 241, 221)" stroke="#f59e0b" stroke-width="1.5"/>
<text x="364.0" y="180.5" text-anchor="middle" font-size="13" font-weight="600" fill="#1f2937">tok_embed</text>
<rect x="280.0" y="256.0" width="168" height="48" rx="10" fill="rgb(254, 241, 221)" stroke="#f59e0b" stroke-width="1.5"/>
<text x="364.0" y="284.5" text-anchor="middle" font-size="13" font-weight="600" fill="#1f2937">txt_pos</text>
<rect x="280.0" y="360.0" width="168" height="48" rx="10" fill="rgb(243, 231, 254)" stroke="#a855f7" stroke-width="1.5"/>
<text x="364.0" y="388.5" text-anchor="middle" font-size="13" font-weight="600" fill="#1f2937">txt_block</text>
<rect x="280.0" y="464.0" width="168" height="48" rx="10" fill="rgb(233, 236, 239)" stroke="#64748b" stroke-width="1.5"/>
<text x="364.0" y="492.5" text-anchor="middle" font-size="13" font-weight="600" fill="#1f2937">txt_norm</text>
<rect x="280.0" y="568.0" width="168" height="48" rx="10" fill="rgb(233, 234, 253)" stroke="#6366f1" stroke-width="1.5"/>
<text x="364.0" y="596.5" text-anchor="middle" font-size="13" font-weight="600" fill="#1f2937">txt_pool</text>
<rect x="164.0" y="672.0" width="168" height="48" rx="10" fill="rgb(235, 235, 236)" stroke="#71717a" stroke-width="1.5"/>
<text x="248.0" y="700.5" text-anchor="middle" font-size="13" font-weight="600" fill="#1f2937">sigmoid_similarity</text>
<rect x="164.0" y="776.0" width="168" height="48" rx="10" fill="rgb(253, 229, 229)" stroke="#ef4444" stroke-width="1.5"/>
<text x="248.0" y="804.5" text-anchor="middle" font-size="13" font-weight="600" fill="#1f2937">logits</text>
<text x="598.0" y="885.0" text-anchor="end" font-size="11" fill="#9aa6b8">Made with Neurarch · neurarch.com</text>
</svg>