<svg xmlns="http://www.w3.org/2000/svg" width="414" height="6096" viewBox="0 0 414 6096" font-family="-apple-system, 'Segoe UI', Inter, Helvetica, Arial, sans-serif">
<defs><marker id="arrow" viewBox="0 0 10 10" refX="8" refY="5" markerWidth="7" markerHeight="7" orient="auto-start-reverse"><path d="M0,0 L10,5 L0,10 z" fill="#94a3b8"/></marker></defs>
<rect x="0" y="0" width="414" height="6096" fill="#ffffff"/>
<rect x="50.0" y="2858.0" width="196.0" height="492.0" rx="14" fill="#f1f5f9" stroke="#cbd5e1" stroke-width="1.5"/>
<rect x="42.0" y="2850.0" width="196.0" height="492.0" rx="14" fill="#f1f5f9" stroke="#cbd5e1" stroke-width="1.5"/>
<rect x="34.0" y="2842.0" width="196.0" height="492.0" rx="14" fill="#ffffff" stroke="#94a3b8" stroke-width="1.5" stroke-dasharray="7 6"/>
<rect x="252.0" y="3069.0" width="57" height="38" rx="19" fill="#4f46e5"/>
<text x="280.5" y="3094.0" text-anchor="middle" font-size="17" font-weight="700" fill="#ffffff">× 2</text>
<rect x="50.0" y="3794.0" width="196.0" height="492.0" rx="14" fill="#f1f5f9" stroke="#cbd5e1" stroke-width="1.5"/>
<rect x="42.0" y="3786.0" width="196.0" height="492.0" rx="14" fill="#f1f5f9" stroke="#cbd5e1" stroke-width="1.5"/>
<rect x="34.0" y="3778.0" width="196.0" height="492.0" rx="14" fill="#ffffff" stroke="#94a3b8" stroke-width="1.5" stroke-dasharray="7 6"/>
<rect x="252.0" y="4005.0" width="57" height="38" rx="19" fill="#4f46e5"/>
<text x="280.5" y="4030.0" text-anchor="middle" font-size="17" font-weight="700" fill="#ffffff">× 2</text>
<rect x="50.0" y="4730.0" width="196.0" height="492.0" rx="14" fill="#f1f5f9" stroke="#cbd5e1" stroke-width="1.5"/>
<rect x="42.0" y="4722.0" width="196.0" height="492.0" rx="14" fill="#f1f5f9" stroke="#cbd5e1" stroke-width="1.5"/>
<rect x="34.0" y="4714.0" width="196.0" height="492.0" rx="14" fill="#ffffff" stroke="#94a3b8" stroke-width="1.5" stroke-dasharray="7 6"/>
<rect x="252.0" y="4941.0" width="57" height="38" rx="19" fill="#4f46e5"/>
<text x="280.5" y="4966.0" text-anchor="middle" font-size="17" font-weight="700" fill="#ffffff">× 3</text>
<path d="M132.0,96.0 C132.0,121.0 132.0,121.0 132.0,146.0" fill="none" stroke="#94a3b8" stroke-width="1.4" marker-end="url(#arrow)"/>
<path d="M132.0,200.0 C132.0,225.0 132.0,225.0 132.0,250.0" fill="none" stroke="#94a3b8" stroke-width="1.4" marker-end="url(#arrow)"/>
<path d="M132.0,304.0 C132.0,329.0 132.0,329.0 132.0,354.0" fill="none" stroke="#94a3b8" stroke-width="1.4" marker-end="url(#arrow)"/>
<path d="M132.0,408.0 C132.0,433.0 132.0,433.0 132.0,458.0" fill="none" stroke="#94a3b8" stroke-width="1.4" marker-end="url(#arrow)"/>
<path d="M132.0,512.0 C132.0,537.0 132.0,537.0 132.0,562.0" fill="none" stroke="#94a3b8" stroke-width="1.4" marker-end="url(#arrow)"/>
<path d="M132.0,616.0 C132.0,641.0 132.0,641.0 132.0,666.0" fill="none" stroke="#94a3b8" stroke-width="1.4" marker-end="url(#arrow)"/>
<path d="M132.0,720.0 C132.0,745.0 132.0,745.0 132.0,770.0" fill="none" stroke="#94a3b8" stroke-width="1.4" marker-end="url(#arrow)"/>
<path d="M132.0,824.0 C132.0,849.0 132.0,849.0 132.0,874.0" fill="none" stroke="#94a3b8" stroke-width="1.4" marker-end="url(#arrow)"/>
<path d="M132.0,928.0 C132.0,953.0 132.0,953.0 132.0,978.0" fill="none" stroke="#94a3b8" stroke-width="1.4" marker-end="url(#arrow)"/>
<path d="M132.0,1032.0 C132.0,1057.0 132.0,1057.0 132.0,1082.0" fill="none" stroke="#94a3b8" stroke-width="1.4" marker-end="url(#arrow)"/>
<path d="M132.0,1136.0 C132.0,1161.0 132.0,1161.0 132.0,1186.0" fill="none" stroke="#94a3b8" stroke-width="1.4" marker-end="url(#arrow)"/>
<path d="M132.0,1240.0 C132.0,1265.0 132.0,1265.0 132.0,1290.0" fill="none" stroke="#94a3b8" stroke-width="1.4" marker-end="url(#arrow)"/>
<path d="M132.0,1344.0 C132.0,1369.0 132.0,1369.0 132.0,1394.0" fill="none" stroke="#94a3b8" stroke-width="1.4" marker-end="url(#arrow)"/>
<path d="M132.0,928.0 C132.0,1161.0 132.0,1161.0 132.0,1394.0" fill="none" stroke="#94a3b8" stroke-width="1.4" marker-end="url(#arrow)"/>
<path d="M132.0,1448.0 C132.0,1473.0 132.0,1473.0 132.0,1498.0" fill="none" stroke="#94a3b8" stroke-width="1.4" marker-end="url(#arrow)"/>
<path d="M132.0,1552.0 C132.0,1577.0 132.0,1577.0 132.0,1602.0" fill="none" stroke="#94a3b8" stroke-width="1.4" marker-end="url(#arrow)"/>
<path d="M132.0,1656.0 C132.0,1681.0 132.0,1681.0 132.0,1706.0" fill="none" stroke="#94a3b8" stroke-width="1.4" marker-end="url(#arrow)"/>
<path d="M132.0,1760.0 C132.0,1785.0 132.0,1785.0 132.0,1810.0" fill="none" stroke="#94a3b8" stroke-width="1.4" marker-end="url(#arrow)"/>
<path d="M132.0,1864.0 C132.0,1889.0 132.0,1889.0 132.0,1914.0" fill="none" stroke="#94a3b8" stroke-width="1.4" marker-end="url(#arrow)"/>
<path d="M132.0,1968.0 C132.0,1993.0 132.0,1993.0 132.0,2018.0" fill="none" stroke="#94a3b8" stroke-width="1.4" marker-end="url(#arrow)"/>
<path d="M132.0,2072.0 C132.0,2097.0 132.0,2097.0 132.0,2122.0" fill="none" stroke="#94a3b8" stroke-width="1.4" marker-end="url(#arrow)"/>
<path d="M132.0,2176.0 C132.0,2201.0 132.0,2201.0 132.0,2226.0" fill="none" stroke="#94a3b8" stroke-width="1.4" marker-end="url(#arrow)"/>
<path d="M132.0,2280.0 C132.0,2305.0 132.0,2305.0 132.0,2330.0" fill="none" stroke="#94a3b8" stroke-width="1.4" marker-end="url(#arrow)"/>
<path d="M132.0,1864.0 C132.0,2097.0 132.0,2097.0 132.0,2330.0" fill="none" stroke="#94a3b8" stroke-width="1.4" marker-end="url(#arrow)"/>
<path d="M132.0,2384.0 C132.0,2409.0 132.0,2409.0 132.0,2434.0" fill="none" stroke="#94a3b8" stroke-width="1.4" marker-end="url(#arrow)"/>
<path d="M132.0,2488.0 C132.0,2513.0 132.0,2513.0 132.0,2538.0" fill="none" stroke="#94a3b8" stroke-width="1.4" marker-end="url(#arrow)"/>
<path d="M132.0,2592.0 C132.0,2617.0 132.0,2617.0 132.0,2642.0" fill="none" stroke="#94a3b8" stroke-width="1.4" marker-end="url(#arrow)"/>
<path d="M132.0,2696.0 C132.0,2721.0 132.0,2721.0 132.0,2746.0" fill="none" stroke="#94a3b8" stroke-width="1.4" marker-end="url(#arrow)"/>
<path d="M132.0,2800.0 C132.0,2825.0 132.0,2825.0 132.0,2850.0" fill="none" stroke="#94a3b8" stroke-width="1.4" marker-end="url(#arrow)"/>
<path d="M132.0,2904.0 C132.0,2929.0 132.0,2929.0 132.0,2954.0" fill="none" stroke="#94a3b8" stroke-width="1.4" marker-end="url(#arrow)"/>
<path d="M132.0,3008.0 C132.0,3033.0 132.0,3033.0 132.0,3058.0" fill="none" stroke="#94a3b8" stroke-width="1.4" marker-end="url(#arrow)"/>
<path d="M132.0,3112.0 C132.0,3137.0 132.0,3137.0 132.0,3162.0" fill="none" stroke="#94a3b8" stroke-width="1.4" marker-end="url(#arrow)"/>
<path d="M132.0,3216.0 C132.0,3241.0 132.0,3241.0 132.0,3266.0" fill="none" stroke="#94a3b8" stroke-width="1.4" marker-end="url(#arrow)"/>
<path d="M132.0,2800.0 C132.0,3033.0 132.0,3033.0 132.0,3266.0" fill="none" stroke="#94a3b8" stroke-width="1.4" marker-end="url(#arrow)"/>
<path d="M132.0,3424.0 C132.0,3449.0 132.0,3449.0 132.0,3474.0" fill="none" stroke="#94a3b8" stroke-width="1.4" marker-end="url(#arrow)"/>
<path d="M132.0,3528.0 C132.0,3553.0 132.0,3553.0 132.0,3578.0" fill="none" stroke="#94a3b8" stroke-width="1.4" marker-end="url(#arrow)"/>
<path d="M132.0,3632.0 C132.0,3657.0 132.0,3657.0 132.0,3682.0" fill="none" stroke="#94a3b8" stroke-width="1.4" marker-end="url(#arrow)"/>
<path d="M132.0,3736.0 C132.0,3761.0 132.0,3761.0 132.0,3786.0" fill="none" stroke="#94a3b8" stroke-width="1.4" marker-end="url(#arrow)"/>
<path d="M132.0,3840.0 C132.0,3865.0 132.0,3865.0 132.0,3890.0" fill="none" stroke="#94a3b8" stroke-width="1.4" marker-end="url(#arrow)"/>
<path d="M132.0,3944.0 C132.0,3969.0 132.0,3969.0 132.0,3994.0" fill="none" stroke="#94a3b8" stroke-width="1.4" marker-end="url(#arrow)"/>
<path d="M132.0,4048.0 C132.0,4073.0 132.0,4073.0 132.0,4098.0" fill="none" stroke="#94a3b8" stroke-width="1.4" marker-end="url(#arrow)"/>
<path d="M132.0,4152.0 C132.0,4177.0 132.0,4177.0 132.0,4202.0" fill="none" stroke="#94a3b8" stroke-width="1.4" marker-end="url(#arrow)"/>
<path d="M132.0,3736.0 C132.0,3969.0 132.0,3969.0 132.0,4202.0" fill="none" stroke="#94a3b8" stroke-width="1.4" marker-end="url(#arrow)"/>
<path d="M132.0,4360.0 C132.0,4385.0 132.0,4385.0 132.0,4410.0" fill="none" stroke="#94a3b8" stroke-width="1.4" marker-end="url(#arrow)"/>
<path d="M132.0,4464.0 C132.0,4489.0 132.0,4489.0 132.0,4514.0" fill="none" stroke="#94a3b8" stroke-width="1.4" marker-end="url(#arrow)"/>
<path d="M132.0,4568.0 C132.0,4593.0 132.0,4593.0 132.0,4618.0" fill="none" stroke="#94a3b8" stroke-width="1.4" marker-end="url(#arrow)"/>
<path d="M132.0,4672.0 C132.0,4697.0 132.0,4697.0 132.0,4722.0" fill="none" stroke="#94a3b8" stroke-width="1.4" marker-end="url(#arrow)"/>
<path d="M132.0,4776.0 C132.0,4801.0 132.0,4801.0 132.0,4826.0" fill="none" stroke="#94a3b8" stroke-width="1.4" marker-end="url(#arrow)"/>
<path d="M132.0,4880.0 C132.0,4905.0 132.0,4905.0 132.0,4930.0" fill="none" stroke="#94a3b8" stroke-width="1.4" marker-end="url(#arrow)"/>
<path d="M132.0,4984.0 C132.0,5009.0 132.0,5009.0 132.0,5034.0" fill="none" stroke="#94a3b8" stroke-width="1.4" marker-end="url(#arrow)"/>
<path d="M132.0,5088.0 C132.0,5113.0 132.0,5113.0 132.0,5138.0" fill="none" stroke="#94a3b8" stroke-width="1.4" marker-end="url(#arrow)"/>
<path d="M132.0,4672.0 C132.0,4905.0 132.0,4905.0 132.0,5138.0" fill="none" stroke="#94a3b8" stroke-width="1.4" marker-end="url(#arrow)"/>
<path d="M132.0,5296.0 C132.0,5321.0 132.0,5321.0 132.0,5346.0" fill="none" stroke="#94a3b8" stroke-width="1.4" marker-end="url(#arrow)"/>
<path d="M132.0,5400.0 C132.0,5425.0 132.0,5425.0 132.0,5450.0" fill="none" stroke="#94a3b8" stroke-width="1.4" marker-end="url(#arrow)"/>
<path d="M132.0,5504.0 C132.0,5529.0 132.0,5529.0 132.0,5554.0" fill="none" stroke="#94a3b8" stroke-width="1.4" marker-end="url(#arrow)"/>
<path d="M132.0,5608.0 C132.0,5633.0 132.0,5633.0 132.0,5658.0" fill="none" stroke="#94a3b8" stroke-width="1.4" marker-end="url(#arrow)"/>
<path d="M132.0,5712.0 C132.0,5737.0 132.0,5737.0 132.0,5762.0" fill="none" stroke="#94a3b8" stroke-width="1.4" marker-end="url(#arrow)"/>
<path d="M132.0,5816.0 C132.0,5841.0 132.0,5841.0 132.0,5866.0" fill="none" stroke="#94a3b8" stroke-width="1.4" marker-end="url(#arrow)"/>
<path d="M132.0,5920.0 C132.0,5945.0 132.0,5945.0 132.0,5970.0" fill="none" stroke="#94a3b8" stroke-width="1.4" marker-end="url(#arrow)"/>
<path d="M132.0,3320.0 C132.0,3345.0 132.0,3345.0 132.0,3370.0" fill="none" stroke="#94a3b8" stroke-width="1.4" marker-end="url(#arrow)"/>
<path d="M132.0,4256.0 C132.0,4281.0 132.0,4281.0 132.0,4306.0" fill="none" stroke="#94a3b8" stroke-width="1.4" marker-end="url(#arrow)"/>
<path d="M132.0,5192.0 C132.0,5217.0 132.0,5217.0 132.0,5242.0" fill="none" stroke="#94a3b8" stroke-width="1.4" marker-end="url(#arrow)"/>
<rect x="48.0" y="48.0" width="168" height="48" rx="10" fill="rgb(224, 247, 232)" stroke="#22c55e" stroke-width="1.5"/>
<text x="132.0" y="76.5" text-anchor="middle" font-size="13" font-weight="600" fill="#1f2937">image</text>
<rect x="48.0" y="152.0" width="168" height="48" rx="10" fill="rgb(228, 238, 254)" stroke="#3b82f6" stroke-width="1.5"/>
<text x="132.0" y="180.5" text-anchor="middle" font-size="13" font-weight="600" fill="#1f2937">stem_3x3/2</text>
<rect x="48.0" y="256.0" width="168" height="48" rx="10" fill="rgb(228, 238, 254)" stroke="#3b82f6" stroke-width="1.5"/>
<text x="132.0" y="284.5" text-anchor="middle" font-size="13" font-weight="600" fill="#1f2937">mb1_dw_3x3</text>
<rect x="48.0" y="360.0" width="168" height="48" rx="10" fill="rgb(235, 235, 236)" stroke="#71717a" stroke-width="1.5"/>
<text x="132.0" y="388.5" text-anchor="middle" font-size="13" font-weight="600" fill="#1f2937">mb1_squeeze_excite</text>
<rect x="48.0" y="464.0" width="168" height="48" rx="10" fill="rgb(228, 238, 254)" stroke="#3b82f6" stroke-width="1.5"/>
<text x="132.0" y="492.5" text-anchor="middle" font-size="13" font-weight="600" fill="#1f2937">mb1_project_1x1</text>
<rect x="48.0" y="568.0" width="168" height="48" rx="10" fill="rgb(228, 238, 254)" stroke="#3b82f6" stroke-width="1.5"/>
<text x="132.0" y="596.5" text-anchor="middle" font-size="13" font-weight="600" fill="#1f2937">mb2_expand_1x1</text>
<rect x="48.0" y="672.0" width="168" height="48" rx="10" fill="rgb(228, 238, 254)" stroke="#3b82f6" stroke-width="1.5"/>
<text x="132.0" y="700.5" text-anchor="middle" font-size="13" font-weight="600" fill="#1f2937">mb2_dw_3x3</text>
<rect x="48.0" y="776.0" width="168" height="48" rx="10" fill="rgb(235, 235, 236)" stroke="#71717a" stroke-width="1.5"/>
<text x="132.0" y="804.5" text-anchor="middle" font-size="13" font-weight="600" fill="#1f2937">mb2_squeeze_excite</text>
<rect x="48.0" y="880.0" width="168" height="48" rx="10" fill="rgb(228, 238, 254)" stroke="#3b82f6" stroke-width="1.5"/>
<text x="132.0" y="908.5" text-anchor="middle" font-size="13" font-weight="600" fill="#1f2937">mb2_project_1x1</text>
<rect x="48.0" y="984.0" width="168" height="48" rx="10" fill="rgb(228, 238, 254)" stroke="#3b82f6" stroke-width="1.5"/>
<text x="132.0" y="1012.5" text-anchor="middle" font-size="13" font-weight="600" fill="#1f2937">mb3_expand_1x1</text>
<rect x="48.0" y="1088.0" width="168" height="48" rx="10" fill="rgb(228, 238, 254)" stroke="#3b82f6" stroke-width="1.5"/>
<text x="132.0" y="1116.5" text-anchor="middle" font-size="13" font-weight="600" fill="#1f2937">mb3_dw_3x3</text>
<rect x="48.0" y="1192.0" width="168" height="48" rx="10" fill="rgb(235, 235, 236)" stroke="#71717a" stroke-width="1.5"/>
<text x="132.0" y="1220.5" text-anchor="middle" font-size="13" font-weight="600" fill="#1f2937">mb3_squeeze_excite</text>
<rect x="48.0" y="1296.0" width="168" height="48" rx="10" fill="rgb(228, 238, 254)" stroke="#3b82f6" stroke-width="1.5"/>
<text x="132.0" y="1324.5" text-anchor="middle" font-size="13" font-weight="600" fill="#1f2937">mb3_project_1x1</text>
<circle cx="132.0" cy="1424.0" r="22" fill="rgb(220, 245, 249)" stroke="#06b6d4" stroke-width="1.5"/>
<text x="132.0" y="1432.0" text-anchor="middle" font-size="24" fill="#06b6d4">⊕</text>
<rect x="48.0" y="1504.0" width="168" height="48" rx="10" fill="rgb(228, 238, 254)" stroke="#3b82f6" stroke-width="1.5"/>
<text x="132.0" y="1532.5" text-anchor="middle" font-size="13" font-weight="600" fill="#1f2937">mb4_expand_1x1</text>
<rect x="48.0" y="1608.0" width="168" height="48" rx="10" fill="rgb(228, 238, 254)" stroke="#3b82f6" stroke-width="1.5"/>
<text x="132.0" y="1636.5" text-anchor="middle" font-size="13" font-weight="600" fill="#1f2937">mb4_dw_5x5</text>
<rect x="48.0" y="1712.0" width="168" height="48" rx="10" fill="rgb(235, 235, 236)" stroke="#71717a" stroke-width="1.5"/>
<text x="132.0" y="1740.5" text-anchor="middle" font-size="13" font-weight="600" fill="#1f2937">mb4_squeeze_excite</text>
<rect x="48.0" y="1816.0" width="168" height="48" rx="10" fill="rgb(228, 238, 254)" stroke="#3b82f6" stroke-width="1.5"/>
<text x="132.0" y="1844.5" text-anchor="middle" font-size="13" font-weight="600" fill="#1f2937">mb4_project_1x1</text>
<rect x="48.0" y="1920.0" width="168" height="48" rx="10" fill="rgb(228, 238, 254)" stroke="#3b82f6" stroke-width="1.5"/>
<text x="132.0" y="1948.5" text-anchor="middle" font-size="13" font-weight="600" fill="#1f2937">mb5_expand_1x1</text>
<rect x="48.0" y="2024.0" width="168" height="48" rx="10" fill="rgb(228, 238, 254)" stroke="#3b82f6" stroke-width="1.5"/>
<text x="132.0" y="2052.5" text-anchor="middle" font-size="13" font-weight="600" fill="#1f2937">mb5_dw_5x5</text>
<rect x="48.0" y="2128.0" width="168" height="48" rx="10" fill="rgb(235, 235, 236)" stroke="#71717a" stroke-width="1.5"/>
<text x="132.0" y="2156.5" text-anchor="middle" font-size="13" font-weight="600" fill="#1f2937">mb5_squeeze_excite</text>
<rect x="48.0" y="2232.0" width="168" height="48" rx="10" fill="rgb(228, 238, 254)" stroke="#3b82f6" stroke-width="1.5"/>
<text x="132.0" y="2260.5" text-anchor="middle" font-size="13" font-weight="600" fill="#1f2937">mb5_project_1x1</text>
<circle cx="132.0" cy="2360.0" r="22" fill="rgb(220, 245, 249)" stroke="#06b6d4" stroke-width="1.5"/>
<text x="132.0" y="2368.0" text-anchor="middle" font-size="24" fill="#06b6d4">⊕</text>
<rect x="48.0" y="2440.0" width="168" height="48" rx="10" fill="rgb(228, 238, 254)" stroke="#3b82f6" stroke-width="1.5"/>
<text x="132.0" y="2468.5" text-anchor="middle" font-size="13" font-weight="600" fill="#1f2937">mb6_expand_1x1</text>
<rect x="48.0" y="2544.0" width="168" height="48" rx="10" fill="rgb(228, 238, 254)" stroke="#3b82f6" stroke-width="1.5"/>
<text x="132.0" y="2572.5" text-anchor="middle" font-size="13" font-weight="600" fill="#1f2937">mb6_dw_3x3</text>
<rect x="48.0" y="2648.0" width="168" height="48" rx="10" fill="rgb(235, 235, 236)" stroke="#71717a" stroke-width="1.5"/>
<text x="132.0" y="2676.5" text-anchor="middle" font-size="13" font-weight="600" fill="#1f2937">mb6_squeeze_excite</text>
<rect x="48.0" y="2752.0" width="168" height="48" rx="10" fill="rgb(228, 238, 254)" stroke="#3b82f6" stroke-width="1.5"/>
<text x="132.0" y="2780.5" text-anchor="middle" font-size="13" font-weight="600" fill="#1f2937">mb6_project_1x1</text>
<rect x="48.0" y="2856.0" width="168" height="48" rx="10" fill="rgb(228, 238, 254)" stroke="#3b82f6" stroke-width="1.5"/>
<text x="132.0" y="2884.5" text-anchor="middle" font-size="13" font-weight="600" fill="#1f2937">mb7_expand_1x1</text>
<rect x="48.0" y="2960.0" width="168" height="48" rx="10" fill="rgb(228, 238, 254)" stroke="#3b82f6" stroke-width="1.5"/>
<text x="132.0" y="2988.5" text-anchor="middle" font-size="13" font-weight="600" fill="#1f2937">mb7_dw_3x3</text>
<rect x="48.0" y="3064.0" width="168" height="48" rx="10" fill="rgb(235, 235, 236)" stroke="#71717a" stroke-width="1.5"/>
<text x="132.0" y="3092.5" text-anchor="middle" font-size="13" font-weight="600" fill="#1f2937">mb7_squeeze_excite</text>
<rect x="48.0" y="3168.0" width="168" height="48" rx="10" fill="rgb(228, 238, 254)" stroke="#3b82f6" stroke-width="1.5"/>
<text x="132.0" y="3196.5" text-anchor="middle" font-size="13" font-weight="600" fill="#1f2937">mb7_project_1x1</text>
<circle cx="132.0" cy="3296.0" r="22" fill="rgb(220, 245, 249)" stroke="#06b6d4" stroke-width="1.5"/>
<text x="132.0" y="3304.0" text-anchor="middle" font-size="24" fill="#06b6d4">⊕</text>
<rect x="48.0" y="3376.0" width="168" height="48" rx="10" fill="rgb(228, 238, 254)" stroke="#3b82f6" stroke-width="1.5"/>
<text x="132.0" y="3404.5" text-anchor="middle" font-size="13" font-weight="600" fill="#1f2937">mb9_expand_1x1</text>
<rect x="48.0" y="3480.0" width="168" height="48" rx="10" fill="rgb(228, 238, 254)" stroke="#3b82f6" stroke-width="1.5"/>
<text x="132.0" y="3508.5" text-anchor="middle" font-size="13" font-weight="600" fill="#1f2937">mb9_dw_5x5</text>
<rect x="48.0" y="3584.0" width="168" height="48" rx="10" fill="rgb(235, 235, 236)" stroke="#71717a" stroke-width="1.5"/>
<text x="132.0" y="3612.5" text-anchor="middle" font-size="13" font-weight="600" fill="#1f2937">mb9_squeeze_excite</text>
<rect x="48.0" y="3688.0" width="168" height="48" rx="10" fill="rgb(228, 238, 254)" stroke="#3b82f6" stroke-width="1.5"/>
<text x="132.0" y="3716.5" text-anchor="middle" font-size="13" font-weight="600" fill="#1f2937">mb9_project_1x1</text>
<rect x="48.0" y="3792.0" width="168" height="48" rx="10" fill="rgb(228, 238, 254)" stroke="#3b82f6" stroke-width="1.5"/>
<text x="132.0" y="3820.5" text-anchor="middle" font-size="13" font-weight="600" fill="#1f2937">mb10_expand_1x1</text>
<rect x="48.0" y="3896.0" width="168" height="48" rx="10" fill="rgb(228, 238, 254)" stroke="#3b82f6" stroke-width="1.5"/>
<text x="132.0" y="3924.5" text-anchor="middle" font-size="13" font-weight="600" fill="#1f2937">mb10_dw_5x5</text>
<rect x="48.0" y="4000.0" width="168" height="48" rx="10" fill="rgb(235, 235, 236)" stroke="#71717a" stroke-width="1.5"/>
<text x="132.0" y="4028.5" text-anchor="middle" font-size="13" font-weight="600" fill="#1f2937">mb10_squeeze_excite</text>
<rect x="48.0" y="4104.0" width="168" height="48" rx="10" fill="rgb(228, 238, 254)" stroke="#3b82f6" stroke-width="1.5"/>
<text x="132.0" y="4132.5" text-anchor="middle" font-size="13" font-weight="600" fill="#1f2937">mb10_project_1x1</text>
<circle cx="132.0" cy="4232.0" r="22" fill="rgb(220, 245, 249)" stroke="#06b6d4" stroke-width="1.5"/>
<text x="132.0" y="4240.0" text-anchor="middle" font-size="24" fill="#06b6d4">⊕</text>
<rect x="48.0" y="4312.0" width="168" height="48" rx="10" fill="rgb(228, 238, 254)" stroke="#3b82f6" stroke-width="1.5"/>
<text x="132.0" y="4340.5" text-anchor="middle" font-size="13" font-weight="600" fill="#1f2937">mb12_expand_1x1</text>
<rect x="48.0" y="4416.0" width="168" height="48" rx="10" fill="rgb(228, 238, 254)" stroke="#3b82f6" stroke-width="1.5"/>
<text x="132.0" y="4444.5" text-anchor="middle" font-size="13" font-weight="600" fill="#1f2937">mb12_dw_5x5</text>
<rect x="48.0" y="4520.0" width="168" height="48" rx="10" fill="rgb(235, 235, 236)" stroke="#71717a" stroke-width="1.5"/>
<text x="132.0" y="4548.5" text-anchor="middle" font-size="13" font-weight="600" fill="#1f2937">mb12_squeeze_excite</text>
<rect x="48.0" y="4624.0" width="168" height="48" rx="10" fill="rgb(228, 238, 254)" stroke="#3b82f6" stroke-width="1.5"/>
<text x="132.0" y="4652.5" text-anchor="middle" font-size="13" font-weight="600" fill="#1f2937">mb12_project_1x1</text>
<rect x="48.0" y="4728.0" width="168" height="48" rx="10" fill="rgb(228, 238, 254)" stroke="#3b82f6" stroke-width="1.5"/>
<text x="132.0" y="4756.5" text-anchor="middle" font-size="13" font-weight="600" fill="#1f2937">mb13_expand_1x1</text>
<rect x="48.0" y="4832.0" width="168" height="48" rx="10" fill="rgb(228, 238, 254)" stroke="#3b82f6" stroke-width="1.5"/>
<text x="132.0" y="4860.5" text-anchor="middle" font-size="13" font-weight="600" fill="#1f2937">mb13_dw_5x5</text>
<rect x="48.0" y="4936.0" width="168" height="48" rx="10" fill="rgb(235, 235, 236)" stroke="#71717a" stroke-width="1.5"/>
<text x="132.0" y="4964.5" text-anchor="middle" font-size="13" font-weight="600" fill="#1f2937">mb13_squeeze_excite</text>
<rect x="48.0" y="5040.0" width="168" height="48" rx="10" fill="rgb(228, 238, 254)" stroke="#3b82f6" stroke-width="1.5"/>
<text x="132.0" y="5068.5" text-anchor="middle" font-size="13" font-weight="600" fill="#1f2937">mb13_project_1x1</text>
<circle cx="132.0" cy="5168.0" r="22" fill="rgb(220, 245, 249)" stroke="#06b6d4" stroke-width="1.5"/>
<text x="132.0" y="5176.0" text-anchor="middle" font-size="24" fill="#06b6d4">⊕</text>
<rect x="48.0" y="5248.0" width="168" height="48" rx="10" fill="rgb(228, 238, 254)" stroke="#3b82f6" stroke-width="1.5"/>
<text x="132.0" y="5276.5" text-anchor="middle" font-size="13" font-weight="600" fill="#1f2937">mb16_expand_1x1</text>
<rect x="48.0" y="5352.0" width="168" height="48" rx="10" fill="rgb(228, 238, 254)" stroke="#3b82f6" stroke-width="1.5"/>
<text x="132.0" y="5380.5" text-anchor="middle" font-size="13" font-weight="600" fill="#1f2937">mb16_dw_3x3</text>
<rect x="48.0" y="5456.0" width="168" height="48" rx="10" fill="rgb(235, 235, 236)" stroke="#71717a" stroke-width="1.5"/>
<text x="132.0" y="5484.5" text-anchor="middle" font-size="13" font-weight="600" fill="#1f2937">mb16_squeeze_excite</text>
<rect x="48.0" y="5560.0" width="168" height="48" rx="10" fill="rgb(228, 238, 254)" stroke="#3b82f6" stroke-width="1.5"/>
<text x="132.0" y="5588.5" text-anchor="middle" font-size="13" font-weight="600" fill="#1f2937">mb16_project_1x1</text>
<rect x="48.0" y="5664.0" width="168" height="48" rx="10" fill="rgb(228, 238, 254)" stroke="#3b82f6" stroke-width="1.5"/>
<text x="132.0" y="5692.5" text-anchor="middle" font-size="13" font-weight="600" fill="#1f2937">head_1x1</text>
<rect x="48.0" y="5768.0" width="168" height="48" rx="10" fill="rgb(233, 234, 253)" stroke="#6366f1" stroke-width="1.5"/>
<text x="132.0" y="5796.5" text-anchor="middle" font-size="13" font-weight="600" fill="#1f2937">avgpool</text>
<rect x="48.0" y="5872.0" width="168" height="48" rx="10" fill="rgb(222, 245, 243)" stroke="#14b8a6" stroke-width="1.5"/>
<text x="132.0" y="5900.5" text-anchor="middle" font-size="13" font-weight="600" fill="#1f2937">classifier</text>
<rect x="48.0" y="5976.0" width="168" height="48" rx="10" fill="rgb(253, 229, 229)" stroke="#ef4444" stroke-width="1.5"/>
<text x="132.0" y="6004.5" text-anchor="middle" font-size="13" font-weight="600" fill="#1f2937">class_logits</text>
<text x="366.0" y="6085.0" text-anchor="end" font-size="11" fill="#9aa6b8">Made with Neurarch · neurarch.com</text>
</svg>