<svg xmlns="http://www.w3.org/2000/svg" width="1672" height="1520" viewBox="0 0 1672 1520" font-family="-apple-system, 'Segoe UI', Inter, Helvetica, Arial, sans-serif">
<defs><marker id="arrow" viewBox="0 0 10 10" refX="8" refY="5" markerWidth="7" markerHeight="7" orient="auto-start-reverse"><path d="M0,0 L10,5 L0,10 z" fill="#94a3b8"/></marker></defs>
<rect x="0" y="0" width="1672" height="1520" fill="#ffffff"/>
<rect x="492.0" y="362.0" width="196.0" height="180.0" rx="14" fill="#f1f5f9" stroke="#cbd5e1" stroke-width="1.5"/>
<rect x="484.0" y="354.0" width="196.0" height="180.0" rx="14" fill="#f1f5f9" stroke="#cbd5e1" stroke-width="1.5"/>
<rect x="476.0" y="346.0" width="196.0" height="180.0" rx="14" fill="#ffffff" stroke="#94a3b8" stroke-width="1.5" stroke-dasharray="7 6"/>
<rect x="397.0" y="417.0" width="57" height="38" rx="19" fill="#4f46e5"/>
<text x="425.5" y="442.0" text-anchor="middle" font-size="17" font-weight="700" fill="#ffffff">× 2</text>
<path d="M574.0,96.0 C574.0,121.0 574.0,121.0 574.0,146.0" fill="none" stroke="#94a3b8" stroke-width="1.4" marker-end="url(#arrow)"/>
<path d="M574.0,200.0 C574.0,225.0 574.0,225.0 574.0,250.0" fill="none" stroke="#94a3b8" stroke-width="1.4" marker-end="url(#arrow)"/>
<path d="M574.0,304.0 C574.0,329.0 574.0,329.0 574.0,354.0" fill="none" stroke="#94a3b8" stroke-width="1.4" marker-end="url(#arrow)"/>
<path d="M574.0,408.0 C574.0,433.0 574.0,433.0 574.0,458.0" fill="none" stroke="#94a3b8" stroke-width="1.4" marker-end="url(#arrow)"/>
<path d="M574.0,512.0 C574.0,537.0 574.0,537.0 574.0,562.0" fill="none" stroke="#94a3b8" stroke-width="1.4" marker-end="url(#arrow)"/>
<path d="M574.0,616.0 C574.0,641.0 574.0,641.0 574.0,666.0" fill="none" stroke="#94a3b8" stroke-width="1.4" marker-end="url(#arrow)"/>
<path d="M574.0,512.0 C574.0,537.0 866.0,537.0 866.0,562.0" fill="none" stroke="#94a3b8" stroke-width="1.4" marker-end="url(#arrow)"/>
<path d="M866.0,616.0 C866.0,641.0 866.0,641.0 866.0,666.0" fill="none" stroke="#94a3b8" stroke-width="1.4" marker-end="url(#arrow)"/>
<path d="M574.0,512.0 C574.0,537.0 1158.0,537.0 1158.0,562.0" fill="none" stroke="#94a3b8" stroke-width="1.4" marker-end="url(#arrow)"/>
<path d="M1158.0,616.0 C1158.0,641.0 1158.0,641.0 1158.0,666.0" fill="none" stroke="#94a3b8" stroke-width="1.4" marker-end="url(#arrow)"/>
<path d="M574.0,720.0 C574.0,745.0 282.0,745.0 282.0,770.0" fill="none" stroke="#94a3b8" stroke-width="1.4" marker-end="url(#arrow)"/>
<path d="M866.0,720.0 C866.0,745.0 282.0,745.0 282.0,770.0" fill="none" stroke="#94a3b8" stroke-width="1.4" marker-end="url(#arrow)"/>
<path d="M282.0,824.0 C282.0,849.0 282.0,849.0 282.0,874.0" fill="none" stroke="#94a3b8" stroke-width="1.4" marker-end="url(#arrow)"/>
<path d="M1158.0,720.0 C1158.0,797.0 282.0,797.0 282.0,874.0" fill="none" stroke="#94a3b8" stroke-width="1.4" marker-end="url(#arrow)"/>
<path d="M282.0,928.0 C282.0,953.0 282.0,953.0 282.0,978.0" fill="none" stroke="#94a3b8" stroke-width="1.4" marker-end="url(#arrow)"/>
<path d="M282.0,1032.0 C282.0,1057.0 282.0,1057.0 282.0,1082.0" fill="none" stroke="#94a3b8" stroke-width="1.4" marker-end="url(#arrow)"/>
<path d="M282.0,1136.0 C282.0,1161.0 282.0,1161.0 282.0,1186.0" fill="none" stroke="#94a3b8" stroke-width="1.4" marker-end="url(#arrow)"/>
<path d="M282.0,1240.0 C282.0,1265.0 282.0,1265.0 282.0,1290.0" fill="none" stroke="#94a3b8" stroke-width="1.4" marker-end="url(#arrow)"/>
<path d="M282.0,1344.0 C282.0,1369.0 282.0,1369.0 282.0,1394.0" fill="none" stroke="#94a3b8" stroke-width="1.4" marker-end="url(#arrow)"/>
<path d="M574.0,512.0 C574.0,537.0 1390.0,537.0 1390.0,562.0" fill="none" stroke="#94a3b8" stroke-width="1.4" marker-end="url(#arrow)"/>
<path d="M1390.0,616.0 C1390.0,641.0 1390.0,641.0 1390.0,666.0" fill="none" stroke="#94a3b8" stroke-width="1.4" marker-end="url(#arrow)"/>
<path d="M574.0,720.0 C574.0,745.0 866.0,745.0 866.0,770.0" fill="none" stroke="#94a3b8" stroke-width="1.4" marker-end="url(#arrow)"/>
<path d="M866.0,720.0 C866.0,745.0 866.0,745.0 866.0,770.0" fill="none" stroke="#94a3b8" stroke-width="1.4" marker-end="url(#arrow)"/>
<path d="M866.0,824.0 C866.0,849.0 866.0,849.0 866.0,874.0" fill="none" stroke="#94a3b8" stroke-width="1.4" marker-end="url(#arrow)"/>
<path d="M1390.0,720.0 C1390.0,797.0 866.0,797.0 866.0,874.0" fill="none" stroke="#94a3b8" stroke-width="1.4" marker-end="url(#arrow)"/>
<path d="M866.0,928.0 C866.0,953.0 866.0,953.0 866.0,978.0" fill="none" stroke="#94a3b8" stroke-width="1.4" marker-end="url(#arrow)"/>
<path d="M866.0,1032.0 C866.0,1057.0 866.0,1057.0 866.0,1082.0" fill="none" stroke="#94a3b8" stroke-width="1.4" marker-end="url(#arrow)"/>
<path d="M866.0,1136.0 C866.0,1161.0 866.0,1161.0 866.0,1186.0" fill="none" stroke="#94a3b8" stroke-width="1.4" marker-end="url(#arrow)"/>
<path d="M866.0,1240.0 C866.0,1265.0 866.0,1265.0 866.0,1290.0" fill="none" stroke="#94a3b8" stroke-width="1.4" marker-end="url(#arrow)"/>
<path d="M866.0,1344.0 C866.0,1369.0 866.0,1369.0 866.0,1394.0" fill="none" stroke="#94a3b8" stroke-width="1.4" marker-end="url(#arrow)"/>
<path d="M574.0,512.0 C574.0,641.0 282.0,641.0 282.0,770.0" fill="none" stroke="#94a3b8" stroke-width="1.4" marker-end="url(#arrow)"/>
<rect x="490.0" y="48.0" width="168" height="48" rx="10" fill="rgb(224, 247, 232)" stroke="#22c55e" stroke-width="1.5"/>
<text x="574.0" y="76.5" text-anchor="middle" font-size="13" font-weight="600" fill="#1f2937">features</text>
<rect x="490.0" y="152.0" width="168" height="48" rx="10" fill="rgb(254, 241, 221)" stroke="#f59e0b" stroke-width="1.5"/>
<text x="574.0" y="180.5" text-anchor="middle" font-size="13" font-weight="600" fill="#1f2937">embed</text>
<rect x="490.0" y="256.0" width="168" height="48" rx="10" fill="rgb(235, 235, 236)" stroke="#71717a" stroke-width="1.5"/>
<text x="574.0" y="284.5" text-anchor="middle" font-size="13" font-weight="600" fill="#1f2937">flatten</text>
<rect x="490.0" y="360.0" width="168" height="48" rx="10" fill="rgb(222, 245, 243)" stroke="#14b8a6" stroke-width="1.5"/>
<text x="574.0" y="388.5" text-anchor="middle" font-size="13" font-weight="600" fill="#1f2937">shared_bottom</text>
<rect x="490.0" y="464.0" width="168" height="48" rx="10" fill="rgb(222, 245, 237)" stroke="#10b981" stroke-width="1.5"/>
<text x="574.0" y="492.5" text-anchor="middle" font-size="13" font-weight="600" fill="#1f2937">bottom_relu</text>
<rect x="490.0" y="568.0" width="168" height="48" rx="10" fill="rgb(222, 245, 243)" stroke="#14b8a6" stroke-width="1.5"/>
<text x="574.0" y="596.5" text-anchor="middle" font-size="13" font-weight="600" fill="#1f2937">expert_2</text>
<rect x="490.0" y="672.0" width="168" height="48" rx="10" fill="rgb(222, 245, 237)" stroke="#10b981" stroke-width="1.5"/>
<text x="574.0" y="700.5" text-anchor="middle" font-size="13" font-weight="600" fill="#1f2937">expert_relu_2</text>
<rect x="782.0" y="568.0" width="168" height="48" rx="10" fill="rgb(222, 245, 243)" stroke="#14b8a6" stroke-width="1.5"/>
<text x="866.0" y="596.5" text-anchor="middle" font-size="13" font-weight="600" fill="#1f2937">expert_3</text>
<rect x="782.0" y="672.0" width="168" height="48" rx="10" fill="rgb(222, 245, 237)" stroke="#10b981" stroke-width="1.5"/>
<text x="866.0" y="700.5" text-anchor="middle" font-size="13" font-weight="600" fill="#1f2937">expert_relu_3</text>
<rect x="1074.0" y="568.0" width="168" height="48" rx="10" fill="rgb(222, 245, 243)" stroke="#14b8a6" stroke-width="1.5"/>
<text x="1158.0" y="596.5" text-anchor="middle" font-size="13" font-weight="600" fill="#1f2937">gate_a</text>
<rect x="1074.0" y="672.0" width="168" height="48" rx="10" fill="rgb(222, 245, 237)" stroke="#10b981" stroke-width="1.5"/>
<text x="1158.0" y="700.5" text-anchor="middle" font-size="13" font-weight="600" fill="#1f2937">gate_a_softmax</text>
<circle cx="282.0" cy="800.0" r="22" fill="rgb(220, 245, 249)" stroke="#06b6d4" stroke-width="1.5"/>
<text x="282.0" y="808.0" text-anchor="middle" font-size="24" fill="#06b6d4">⊕</text>
<circle cx="282.0" cy="904.0" r="22" fill="rgb(220, 245, 249)" stroke="#06b6d4" stroke-width="1.5"/>
<text x="282.0" y="912.0" text-anchor="middle" font-size="24" fill="#06b6d4">∥</text>
<rect x="198.0" y="984.0" width="168" height="48" rx="10" fill="rgb(222, 245, 243)" stroke="#14b8a6" stroke-width="1.5"/>
<text x="282.0" y="1012.5" text-anchor="middle" font-size="13" font-weight="600" fill="#1f2937">tower_a_1</text>
<rect x="198.0" y="1088.0" width="168" height="48" rx="10" fill="rgb(222, 245, 237)" stroke="#10b981" stroke-width="1.5"/>
<text x="282.0" y="1116.5" text-anchor="middle" font-size="13" font-weight="600" fill="#1f2937">tower_a_relu</text>
<rect x="198.0" y="1192.0" width="168" height="48" rx="10" fill="rgb(222, 245, 243)" stroke="#14b8a6" stroke-width="1.5"/>
<text x="282.0" y="1220.5" text-anchor="middle" font-size="13" font-weight="600" fill="#1f2937">tower_a_2</text>
<rect x="198.0" y="1296.0" width="168" height="48" rx="10" fill="rgb(222, 245, 237)" stroke="#10b981" stroke-width="1.5"/>
<text x="282.0" y="1324.5" text-anchor="middle" font-size="13" font-weight="600" fill="#1f2937">p_click</text>
<rect x="198.0" y="1400.0" width="168" height="48" rx="10" fill="rgb(253, 229, 229)" stroke="#ef4444" stroke-width="1.5"/>
<text x="282.0" y="1428.5" text-anchor="middle" font-size="13" font-weight="600" fill="#1f2937">click_prob</text>
<rect x="1306.0" y="568.0" width="168" height="48" rx="10" fill="rgb(222, 245, 243)" stroke="#14b8a6" stroke-width="1.5"/>
<text x="1390.0" y="596.5" text-anchor="middle" font-size="13" font-weight="600" fill="#1f2937">gate_b</text>
<rect x="1306.0" y="672.0" width="168" height="48" rx="10" fill="rgb(222, 245, 237)" stroke="#10b981" stroke-width="1.5"/>
<text x="1390.0" y="700.5" text-anchor="middle" font-size="13" font-weight="600" fill="#1f2937">gate_b_softmax</text>
<circle cx="866.0" cy="800.0" r="22" fill="rgb(220, 245, 249)" stroke="#06b6d4" stroke-width="1.5"/>
<text x="866.0" y="808.0" text-anchor="middle" font-size="24" fill="#06b6d4">⊕</text>
<circle cx="866.0" cy="904.0" r="22" fill="rgb(220, 245, 249)" stroke="#06b6d4" stroke-width="1.5"/>
<text x="866.0" y="912.0" text-anchor="middle" font-size="24" fill="#06b6d4">∥</text>
<rect x="782.0" y="984.0" width="168" height="48" rx="10" fill="rgb(222, 245, 243)" stroke="#14b8a6" stroke-width="1.5"/>
<text x="866.0" y="1012.5" text-anchor="middle" font-size="13" font-weight="600" fill="#1f2937">tower_b_1</text>
<rect x="782.0" y="1088.0" width="168" height="48" rx="10" fill="rgb(222, 245, 237)" stroke="#10b981" stroke-width="1.5"/>
<text x="866.0" y="1116.5" text-anchor="middle" font-size="13" font-weight="600" fill="#1f2937">tower_b_relu</text>
<rect x="782.0" y="1192.0" width="168" height="48" rx="10" fill="rgb(222, 245, 243)" stroke="#14b8a6" stroke-width="1.5"/>
<text x="866.0" y="1220.5" text-anchor="middle" font-size="13" font-weight="600" fill="#1f2937">tower_b_2</text>
<rect x="782.0" y="1296.0" width="168" height="48" rx="10" fill="rgb(222, 245, 237)" stroke="#10b981" stroke-width="1.5"/>
<text x="866.0" y="1324.5" text-anchor="middle" font-size="13" font-weight="600" fill="#1f2937">p_like</text>
<rect x="782.0" y="1400.0" width="168" height="48" rx="10" fill="rgb(253, 229, 229)" stroke="#ef4444" stroke-width="1.5"/>
<text x="866.0" y="1428.5" text-anchor="middle" font-size="13" font-weight="600" fill="#1f2937">like_prob</text>
<text x="1624.0" y="1509.0" text-anchor="end" font-size="11" fill="#9aa6b8">Made with Neurarch · neurarch.com</text>
</svg>