<svg xmlns="http://www.w3.org/2000/svg" width="1148" height="1000" viewBox="0 0 1148 1000" font-family="-apple-system, 'Segoe UI', Inter, Helvetica, Arial, sans-serif">
<defs><marker id="arrow" viewBox="0 0 10 10" refX="8" refY="5" markerWidth="7" markerHeight="7" orient="auto-start-reverse"><path d="M0,0 L10,5 L0,10 z" fill="#94a3b8"/></marker></defs>
<rect x="0" y="0" width="1148" height="1000" fill="#ffffff"/>
<rect x="200.0" y="362.0" width="196.0" height="76.0" rx="14" fill="#f1f5f9" stroke="#cbd5e1" stroke-width="1.5"/>
<rect x="192.0" y="354.0" width="196.0" height="76.0" rx="14" fill="#f1f5f9" stroke="#cbd5e1" stroke-width="1.5"/>
<rect x="184.0" y="346.0" width="196.0" height="76.0" rx="14" fill="#ffffff" stroke="#94a3b8" stroke-width="1.5" stroke-dasharray="7 6"/>
<rect x="96.0" y="365.0" width="66" height="38" rx="19" fill="#4f46e5"/>
<text x="129.0" y="390.0" text-anchor="middle" font-size="17" font-weight="700" fill="#ffffff">× 12</text>
<rect x="784.0" y="362.0" width="196.0" height="76.0" rx="14" fill="#f1f5f9" stroke="#cbd5e1" stroke-width="1.5"/>
<rect x="776.0" y="354.0" width="196.0" height="76.0" rx="14" fill="#f1f5f9" stroke="#cbd5e1" stroke-width="1.5"/>
<rect x="768.0" y="346.0" width="196.0" height="76.0" rx="14" fill="#ffffff" stroke="#94a3b8" stroke-width="1.5" stroke-dasharray="7 6"/>
<rect x="986.0" y="365.0" width="66" height="38" rx="19" fill="#4f46e5"/>
<text x="1019.0" y="390.0" text-anchor="middle" font-size="17" font-weight="700" fill="#ffffff">× 12</text>
<path d="M282.0,96.0 C282.0,121.0 282.0,121.0 282.0,146.0" fill="none" stroke="#94a3b8" stroke-width="1.4" marker-end="url(#arrow)"/>
<path d="M282.0,200.0 C282.0,225.0 282.0,225.0 282.0,250.0" fill="none" stroke="#94a3b8" stroke-width="1.4" marker-end="url(#arrow)"/>
<path d="M282.0,304.0 C282.0,329.0 282.0,329.0 282.0,354.0" fill="none" stroke="#94a3b8" stroke-width="1.4" marker-end="url(#arrow)"/>
<path d="M282.0,512.0 C282.0,537.0 282.0,537.0 282.0,562.0" fill="none" stroke="#94a3b8" stroke-width="1.4" marker-end="url(#arrow)"/>
<path d="M282.0,616.0 C282.0,641.0 282.0,641.0 282.0,666.0" fill="none" stroke="#94a3b8" stroke-width="1.4" marker-end="url(#arrow)"/>
<path d="M866.0,96.0 C866.0,121.0 866.0,121.0 866.0,146.0" fill="none" stroke="#94a3b8" stroke-width="1.4" marker-end="url(#arrow)"/>
<path d="M866.0,200.0 C866.0,225.0 866.0,225.0 866.0,250.0" fill="none" stroke="#94a3b8" stroke-width="1.4" marker-end="url(#arrow)"/>
<path d="M866.0,304.0 C866.0,329.0 866.0,329.0 866.0,354.0" fill="none" stroke="#94a3b8" stroke-width="1.4" marker-end="url(#arrow)"/>
<path d="M866.0,512.0 C866.0,537.0 866.0,537.0 866.0,562.0" fill="none" stroke="#94a3b8" stroke-width="1.4" marker-end="url(#arrow)"/>
<path d="M866.0,616.0 C866.0,641.0 866.0,641.0 866.0,666.0" fill="none" stroke="#94a3b8" stroke-width="1.4" marker-end="url(#arrow)"/>
<path d="M282.0,720.0 C282.0,745.0 574.0,745.0 574.0,770.0" fill="none" stroke="#94a3b8" stroke-width="1.4" marker-end="url(#arrow)"/>
<path d="M866.0,720.0 C866.0,745.0 574.0,745.0 574.0,770.0" fill="none" stroke="#94a3b8" stroke-width="1.4" marker-end="url(#arrow)"/>
<path d="M574.0,824.0 C574.0,849.0 574.0,849.0 574.0,874.0" fill="none" stroke="#94a3b8" stroke-width="1.4" marker-end="url(#arrow)"/>
<path d="M282.0,408.0 C282.0,433.0 282.0,433.0 282.0,458.0" fill="none" stroke="#94a3b8" stroke-width="1.4" marker-end="url(#arrow)"/>
<path d="M866.0,408.0 C866.0,433.0 866.0,433.0 866.0,458.0" fill="none" stroke="#94a3b8" stroke-width="1.4" marker-end="url(#arrow)"/>
<rect x="198.0" y="48.0" width="168" height="48" rx="10" fill="rgb(224, 247, 232)" stroke="#22c55e" stroke-width="1.5"/>
<text x="282.0" y="76.5" text-anchor="middle" font-size="13" font-weight="600" fill="#1f2937">image</text>
<rect x="198.0" y="152.0" width="168" height="48" rx="10" fill="rgb(235, 235, 236)" stroke="#71717a" stroke-width="1.5"/>
<text x="282.0" y="180.5" text-anchor="middle" font-size="13" font-weight="600" fill="#1f2937">patch_embed</text>
<rect x="198.0" y="256.0" width="168" height="48" rx="10" fill="rgb(254, 241, 221)" stroke="#f59e0b" stroke-width="1.5"/>
<text x="282.0" y="284.5" text-anchor="middle" font-size="13" font-weight="600" fill="#1f2937">vis_pos</text>
<rect x="198.0" y="360.0" width="168" height="48" rx="10" fill="rgb(243, 231, 254)" stroke="#a855f7" stroke-width="1.5"/>
<text x="282.0" y="388.5" text-anchor="middle" font-size="13" font-weight="600" fill="#1f2937">vis_block</text>
<rect x="198.0" y="464.0" width="168" height="48" rx="10" fill="rgb(233, 236, 239)" stroke="#64748b" stroke-width="1.5"/>
<text x="282.0" y="492.5" text-anchor="middle" font-size="13" font-weight="600" fill="#1f2937">vis_norm</text>
<rect x="198.0" y="568.0" width="168" height="48" rx="10" fill="rgb(233, 234, 253)" stroke="#6366f1" stroke-width="1.5"/>
<text x="282.0" y="596.5" text-anchor="middle" font-size="13" font-weight="600" fill="#1f2937">vis_pool</text>
<rect x="198.0" y="672.0" width="168" height="48" rx="10" fill="rgb(222, 245, 243)" stroke="#14b8a6" stroke-width="1.5"/>
<text x="282.0" y="700.5" text-anchor="middle" font-size="13" font-weight="600" fill="#1f2937">img_proj</text>
<rect x="782.0" y="48.0" width="168" height="48" rx="10" fill="rgb(224, 247, 232)" stroke="#22c55e" stroke-width="1.5"/>
<text x="866.0" y="76.5" text-anchor="middle" font-size="13" font-weight="600" fill="#1f2937">tokens</text>
<rect x="782.0" y="152.0" width="168" height="48" rx="10" fill="rgb(254, 241, 221)" stroke="#f59e0b" stroke-width="1.5"/>
<text x="866.0" y="180.5" text-anchor="middle" font-size="13" font-weight="600" fill="#1f2937">tok_embed</text>
<rect x="782.0" y="256.0" width="168" height="48" rx="10" fill="rgb(254, 241, 221)" stroke="#f59e0b" stroke-width="1.5"/>
<text x="866.0" y="284.5" text-anchor="middle" font-size="13" font-weight="600" fill="#1f2937">txt_pos</text>
<rect x="782.0" y="360.0" width="168" height="48" rx="10" fill="rgb(243, 231, 254)" stroke="#a855f7" stroke-width="1.5"/>
<text x="866.0" y="388.5" text-anchor="middle" font-size="13" font-weight="600" fill="#1f2937">txt_block</text>
<rect x="782.0" y="464.0" width="168" height="48" rx="10" fill="rgb(233, 236, 239)" stroke="#64748b" stroke-width="1.5"/>
<text x="866.0" y="492.5" text-anchor="middle" font-size="13" font-weight="600" fill="#1f2937">txt_norm</text>
<rect x="782.0" y="568.0" width="168" height="48" rx="10" fill="rgb(233, 234, 253)" stroke="#6366f1" stroke-width="1.5"/>
<text x="866.0" y="596.5" text-anchor="middle" font-size="13" font-weight="600" fill="#1f2937">txt_pool</text>
<rect x="782.0" y="672.0" width="168" height="48" rx="10" fill="rgb(222, 245, 243)" stroke="#14b8a6" stroke-width="1.5"/>
<text x="866.0" y="700.5" text-anchor="middle" font-size="13" font-weight="600" fill="#1f2937">txt_proj</text>
<rect x="490.0" y="776.0" width="168" height="48" rx="10" fill="rgb(235, 235, 236)" stroke="#71717a" stroke-width="1.5"/>
<text x="574.0" y="804.5" text-anchor="middle" font-size="13" font-weight="600" fill="#1f2937">similarity</text>
<rect x="490.0" y="880.0" width="168" height="48" rx="10" fill="rgb(253, 229, 229)" stroke="#ef4444" stroke-width="1.5"/>
<text x="574.0" y="908.5" text-anchor="middle" font-size="13" font-weight="600" fill="#1f2937">logits</text>
<text x="1100.0" y="989.0" text-anchor="end" font-size="11" fill="#9aa6b8">Made with Neurarch · neurarch.com</text>
</svg>