<svg xmlns="http://www.w3.org/2000/svg" width="1148" height="1312" viewBox="0 0 1148 1312" font-family="-apple-system, 'Segoe UI', Inter, Helvetica, Arial, sans-serif">
<defs><marker id="arrow" viewBox="0 0 10 10" refX="8" refY="5" markerWidth="7" markerHeight="7" orient="auto-start-reverse"><path d="M0,0 L10,5 L0,10 z" fill="#94a3b8"/></marker></defs>
<rect x="0" y="0" width="1148" height="1312" fill="#ffffff"/>
<rect x="200.0" y="258.0" width="196.0" height="388.0" rx="14" fill="#f1f5f9" stroke="#cbd5e1" stroke-width="1.5"/>
<rect x="192.0" y="250.0" width="196.0" height="388.0" rx="14" fill="#f1f5f9" stroke="#cbd5e1" stroke-width="1.5"/>
<rect x="184.0" y="242.0" width="196.0" height="388.0" rx="14" fill="#ffffff" stroke="#94a3b8" stroke-width="1.5" stroke-dasharray="7 6"/>
<rect x="105.0" y="417.0" width="57" height="38" rx="19" fill="#4f46e5"/>
<text x="133.5" y="442.0" text-anchor="middle" font-size="17" font-weight="700" fill="#ffffff">× 6</text>
<rect x="784.0" y="258.0" width="196.0" height="804.0" rx="14" fill="#f1f5f9" stroke="#cbd5e1" stroke-width="1.5"/>
<rect x="776.0" y="250.0" width="196.0" height="804.0" rx="14" fill="#f1f5f9" stroke="#cbd5e1" stroke-width="1.5"/>
<rect x="768.0" y="242.0" width="196.0" height="804.0" rx="14" fill="#ffffff" stroke="#94a3b8" stroke-width="1.5" stroke-dasharray="7 6"/>
<rect x="986.0" y="625.0" width="57" height="38" rx="19" fill="#4f46e5"/>
<text x="1014.5" y="650.0" text-anchor="middle" font-size="17" font-weight="700" fill="#ffffff">× 6</text>
<path d="M574.0,96.0 C574.0,121.0 282.0,121.0 282.0,146.0" fill="none" stroke="#94a3b8" stroke-width="1.4" marker-end="url(#arrow)"/>
<path d="M282.0,200.0 C282.0,225.0 282.0,225.0 282.0,250.0" fill="none" stroke="#94a3b8" stroke-width="1.4" marker-end="url(#arrow)"/>
<path d="M282.0,200.0 C282.0,277.0 282.0,277.0 282.0,354.0" fill="none" stroke="#94a3b8" stroke-width="1.4" marker-end="url(#arrow)"/>
<path d="M282.0,304.0 C282.0,329.0 282.0,329.0 282.0,354.0" fill="none" stroke="#94a3b8" stroke-width="1.4" marker-end="url(#arrow)"/>
<path d="M282.0,408.0 C282.0,433.0 282.0,433.0 282.0,458.0" fill="none" stroke="#94a3b8" stroke-width="1.4" marker-end="url(#arrow)"/>
<path d="M282.0,512.0 C282.0,537.0 282.0,537.0 282.0,562.0" fill="none" stroke="#94a3b8" stroke-width="1.4" marker-end="url(#arrow)"/>
<path d="M574.0,96.0 C574.0,121.0 866.0,121.0 866.0,146.0" fill="none" stroke="#94a3b8" stroke-width="1.4" marker-end="url(#arrow)"/>
<path d="M866.0,200.0 C866.0,225.0 866.0,225.0 866.0,250.0" fill="none" stroke="#94a3b8" stroke-width="1.4" marker-end="url(#arrow)"/>
<path d="M866.0,200.0 C866.0,277.0 866.0,277.0 866.0,354.0" fill="none" stroke="#94a3b8" stroke-width="1.4" marker-end="url(#arrow)"/>
<path d="M866.0,304.0 C866.0,329.0 866.0,329.0 866.0,354.0" fill="none" stroke="#94a3b8" stroke-width="1.4" marker-end="url(#arrow)"/>
<path d="M866.0,408.0 C866.0,433.0 866.0,433.0 866.0,458.0" fill="none" stroke="#94a3b8" stroke-width="1.4" marker-end="url(#arrow)"/>
<path d="M866.0,512.0 C866.0,589.0 866.0,589.0 866.0,666.0" fill="none" stroke="#94a3b8" stroke-width="1.4" marker-end="url(#arrow)"/>
<path d="M866.0,512.0 C866.0,641.0 866.0,641.0 866.0,770.0" fill="none" stroke="#94a3b8" stroke-width="1.4" marker-end="url(#arrow)"/>
<path d="M866.0,720.0 C866.0,745.0 866.0,745.0 866.0,770.0" fill="none" stroke="#94a3b8" stroke-width="1.4" marker-end="url(#arrow)"/>
<path d="M866.0,824.0 C866.0,849.0 866.0,849.0 866.0,874.0" fill="none" stroke="#94a3b8" stroke-width="1.4" marker-end="url(#arrow)"/>
<path d="M866.0,928.0 C866.0,953.0 866.0,953.0 866.0,978.0" fill="none" stroke="#94a3b8" stroke-width="1.4" marker-end="url(#arrow)"/>
<path d="M866.0,1136.0 C866.0,1161.0 574.0,1161.0 574.0,1186.0" fill="none" stroke="#94a3b8" stroke-width="1.4" marker-end="url(#arrow)"/>
<path d="M282.0,616.0 C282.0,641.0 866.0,641.0 866.0,666.0" fill="none" stroke="#94a3b8" stroke-width="1.4" marker-end="url(#arrow)"/>
<path d="M866.0,1032.0 C866.0,1057.0 866.0,1057.0 866.0,1082.0" fill="none" stroke="#94a3b8" stroke-width="1.4" marker-end="url(#arrow)"/>
<rect x="490.0" y="48.0" width="168" height="48" rx="10" fill="rgb(224, 247, 232)" stroke="#22c55e" stroke-width="1.5"/>
<text x="574.0" y="76.5" text-anchor="middle" font-size="13" font-weight="600" fill="#1f2937">Input</text>
<rect x="198.0" y="152.0" width="168" height="48" rx="10" fill="rgb(254, 241, 221)" stroke="#f59e0b" stroke-width="1.5"/>
<text x="282.0" y="180.5" text-anchor="middle" font-size="13" font-weight="600" fill="#1f2937">Encoder_Embedding</text>
<rect x="198.0" y="256.0" width="168" height="48" rx="10" fill="rgb(243, 231, 254)" stroke="#a855f7" stroke-width="1.5"/>
<text x="282.0" y="284.5" text-anchor="middle" font-size="13" font-weight="600" fill="#1f2937">Enc_Attn</text>
<circle cx="282.0" cy="384.0" r="22" fill="rgb(220, 245, 249)" stroke="#06b6d4" stroke-width="1.5"/>
<text x="282.0" y="392.0" text-anchor="middle" font-size="24" fill="#06b6d4">⊕</text>
<rect x="198.0" y="464.0" width="168" height="48" rx="10" fill="rgb(233, 236, 239)" stroke="#64748b" stroke-width="1.5"/>
<text x="282.0" y="492.5" text-anchor="middle" font-size="13" font-weight="600" fill="#1f2937">Enc_Norm</text>
<rect x="198.0" y="568.0" width="168" height="48" rx="10" fill="rgb(222, 245, 243)" stroke="#14b8a6" stroke-width="1.5"/>
<text x="282.0" y="596.5" text-anchor="middle" font-size="13" font-weight="600" fill="#1f2937">Enc_FFN</text>
<rect x="782.0" y="152.0" width="168" height="48" rx="10" fill="rgb(254, 241, 221)" stroke="#f59e0b" stroke-width="1.5"/>
<text x="866.0" y="180.5" text-anchor="middle" font-size="13" font-weight="600" fill="#1f2937">Decoder_Embedding</text>
<rect x="782.0" y="256.0" width="168" height="48" rx="10" fill="rgb(243, 231, 254)" stroke="#a855f7" stroke-width="1.5"/>
<text x="866.0" y="284.5" text-anchor="middle" font-size="13" font-weight="600" fill="#1f2937">Dec_SelfAttn</text>
<circle cx="866.0" cy="384.0" r="22" fill="rgb(220, 245, 249)" stroke="#06b6d4" stroke-width="1.5"/>
<text x="866.0" y="392.0" text-anchor="middle" font-size="24" fill="#06b6d4">⊕</text>
<rect x="782.0" y="464.0" width="168" height="48" rx="10" fill="rgb(233, 236, 239)" stroke="#64748b" stroke-width="1.5"/>
<text x="866.0" y="492.5" text-anchor="middle" font-size="13" font-weight="600" fill="#1f2937">Dec_Norm1</text>
<rect x="782.0" y="672.0" width="168" height="48" rx="10" fill="rgb(243, 231, 254)" stroke="#a855f7" stroke-width="1.5"/>
<text x="866.0" y="700.5" text-anchor="middle" font-size="13" font-weight="600" fill="#1f2937">Dec_CrossAttn</text>
<circle cx="866.0" cy="800.0" r="22" fill="rgb(220, 245, 249)" stroke="#06b6d4" stroke-width="1.5"/>
<text x="866.0" y="808.0" text-anchor="middle" font-size="24" fill="#06b6d4">⊕</text>
<rect x="782.0" y="880.0" width="168" height="48" rx="10" fill="rgb(233, 236, 239)" stroke="#64748b" stroke-width="1.5"/>
<text x="866.0" y="908.5" text-anchor="middle" font-size="13" font-weight="600" fill="#1f2937">Dec_Norm2</text>
<rect x="782.0" y="984.0" width="168" height="48" rx="10" fill="rgb(222, 245, 243)" stroke="#14b8a6" stroke-width="1.5"/>
<text x="866.0" y="1012.5" text-anchor="middle" font-size="13" font-weight="600" fill="#1f2937">Dec_FFN</text>
<rect x="782.0" y="1088.0" width="168" height="48" rx="10" fill="rgb(222, 245, 243)" stroke="#14b8a6" stroke-width="1.5"/>
<text x="866.0" y="1116.5" text-anchor="middle" font-size="13" font-weight="600" fill="#1f2937">LM_Head</text>
<rect x="490.0" y="1192.0" width="168" height="48" rx="10" fill="rgb(253, 229, 229)" stroke="#ef4444" stroke-width="1.5"/>
<text x="574.0" y="1220.5" text-anchor="middle" font-size="13" font-weight="600" fill="#1f2937">Output</text>
<text x="1100.0" y="1301.0" text-anchor="end" font-size="11" fill="#9aa6b8">Made with Neurarch · neurarch.com</text>
</svg>