<svg xmlns="http://www.w3.org/2000/svg" width="960" height="1208" viewBox="0 0 960 1208" font-family="-apple-system, 'Segoe UI', Inter, Helvetica, Arial, sans-serif">
<defs><marker id="arrow" viewBox="0 0 10 10" refX="8" refY="5" markerWidth="7" markerHeight="7" orient="auto-start-reverse"><path d="M0,0 L10,5 L0,10 z" fill="#94a3b8"/></marker></defs>
<rect x="0" y="0" width="960" height="1208" fill="#ffffff"/>
<path d="M364.0,96.0 C364.0,121.0 132.0,121.0 132.0,146.0" fill="none" stroke="#94a3b8" stroke-width="1.4" marker-end="url(#arrow)"/>
<path d="M364.0,96.0 C364.0,121.0 596.0,121.0 596.0,146.0" fill="none" stroke="#94a3b8" stroke-width="1.4" marker-end="url(#arrow)"/>
<path d="M596.0,96.0 C596.0,121.0 364.0,121.0 364.0,146.0" fill="none" stroke="#94a3b8" stroke-width="1.4" marker-end="url(#arrow)"/>
<path d="M596.0,96.0 C596.0,121.0 828.0,121.0 828.0,146.0" fill="none" stroke="#94a3b8" stroke-width="1.4" marker-end="url(#arrow)"/>
<path d="M132.0,200.0 C132.0,225.0 364.0,225.0 364.0,250.0" fill="none" stroke="#94a3b8" stroke-width="1.4" marker-end="url(#arrow)"/>
<path d="M364.0,200.0 C364.0,225.0 364.0,225.0 364.0,250.0" fill="none" stroke="#94a3b8" stroke-width="1.4" marker-end="url(#arrow)"/>
<path d="M596.0,200.0 C596.0,225.0 596.0,225.0 596.0,250.0" fill="none" stroke="#94a3b8" stroke-width="1.4" marker-end="url(#arrow)"/>
<path d="M828.0,200.0 C828.0,225.0 596.0,225.0 596.0,250.0" fill="none" stroke="#94a3b8" stroke-width="1.4" marker-end="url(#arrow)"/>
<path d="M596.0,304.0 C596.0,329.0 480.0,329.0 480.0,354.0" fill="none" stroke="#94a3b8" stroke-width="1.4" marker-end="url(#arrow)"/>
<path d="M480.0,408.0 C480.0,433.0 480.0,433.0 480.0,458.0" fill="none" stroke="#94a3b8" stroke-width="1.4" marker-end="url(#arrow)"/>
<path d="M480.0,512.0 C480.0,537.0 480.0,537.0 480.0,562.0" fill="none" stroke="#94a3b8" stroke-width="1.4" marker-end="url(#arrow)"/>
<path d="M480.0,616.0 C480.0,641.0 480.0,641.0 480.0,666.0" fill="none" stroke="#94a3b8" stroke-width="1.4" marker-end="url(#arrow)"/>
<path d="M364.0,304.0 C364.0,537.0 480.0,537.0 480.0,770.0" fill="none" stroke="#94a3b8" stroke-width="1.4" marker-end="url(#arrow)"/>
<path d="M480.0,720.0 C480.0,745.0 480.0,745.0 480.0,770.0" fill="none" stroke="#94a3b8" stroke-width="1.4" marker-end="url(#arrow)"/>
<path d="M480.0,824.0 C480.0,849.0 480.0,849.0 480.0,874.0" fill="none" stroke="#94a3b8" stroke-width="1.4" marker-end="url(#arrow)"/>
<path d="M480.0,928.0 C480.0,953.0 480.0,953.0 480.0,978.0" fill="none" stroke="#94a3b8" stroke-width="1.4" marker-end="url(#arrow)"/>
<path d="M480.0,1032.0 C480.0,1057.0 480.0,1057.0 480.0,1082.0" fill="none" stroke="#94a3b8" stroke-width="1.4" marker-end="url(#arrow)"/>
<rect x="280.0" y="48.0" width="168" height="48" rx="10" fill="rgb(224, 247, 232)" stroke="#22c55e" stroke-width="1.5"/>
<text x="364.0" y="76.5" text-anchor="middle" font-size="13" font-weight="600" fill="#1f2937">User ID</text>
<rect x="512.0" y="48.0" width="168" height="48" rx="10" fill="rgb(224, 247, 232)" stroke="#22c55e" stroke-width="1.5"/>
<text x="596.0" y="76.5" text-anchor="middle" font-size="13" font-weight="600" fill="#1f2937">Item ID</text>
<rect x="48.0" y="152.0" width="168" height="48" rx="10" fill="rgb(254, 241, 221)" stroke="#f59e0b" stroke-width="1.5"/>
<text x="132.0" y="180.5" text-anchor="middle" font-size="13" font-weight="600" fill="#1f2937">User MF Emb</text>
<rect x="280.0" y="152.0" width="168" height="48" rx="10" fill="rgb(254, 241, 221)" stroke="#f59e0b" stroke-width="1.5"/>
<text x="364.0" y="180.5" text-anchor="middle" font-size="13" font-weight="600" fill="#1f2937">Item MF Emb</text>
<rect x="512.0" y="152.0" width="168" height="48" rx="10" fill="rgb(254, 241, 221)" stroke="#f59e0b" stroke-width="1.5"/>
<text x="596.0" y="180.5" text-anchor="middle" font-size="13" font-weight="600" fill="#1f2937">User MLP Emb</text>
<rect x="744.0" y="152.0" width="168" height="48" rx="10" fill="rgb(254, 241, 221)" stroke="#f59e0b" stroke-width="1.5"/>
<text x="828.0" y="180.5" text-anchor="middle" font-size="13" font-weight="600" fill="#1f2937">Item MLP Emb</text>
<circle cx="364.0" cy="280.0" r="22" fill="rgb(220, 245, 249)" stroke="#06b6d4" stroke-width="1.5"/>
<text x="364.0" y="288.0" text-anchor="middle" font-size="24" fill="#06b6d4">⊗</text>
<circle cx="596.0" cy="280.0" r="22" fill="rgb(220, 245, 249)" stroke="#06b6d4" stroke-width="1.5"/>
<text x="596.0" y="288.0" text-anchor="middle" font-size="24" fill="#06b6d4">∥</text>
<rect x="396.0" y="360.0" width="168" height="48" rx="10" fill="rgb(222, 245, 243)" stroke="#14b8a6" stroke-width="1.5"/>
<text x="480.0" y="388.5" text-anchor="middle" font-size="13" font-weight="600" fill="#1f2937">MLP FC 1</text>
<rect x="396.0" y="464.0" width="168" height="48" rx="10" fill="rgb(222, 245, 237)" stroke="#10b981" stroke-width="1.5"/>
<text x="480.0" y="492.5" text-anchor="middle" font-size="13" font-weight="600" fill="#1f2937">ReLU</text>
<rect x="396.0" y="568.0" width="168" height="48" rx="10" fill="rgb(222, 245, 243)" stroke="#14b8a6" stroke-width="1.5"/>
<text x="480.0" y="596.5" text-anchor="middle" font-size="13" font-weight="600" fill="#1f2937">MLP FC 2</text>
<rect x="396.0" y="672.0" width="168" height="48" rx="10" fill="rgb(222, 245, 237)" stroke="#10b981" stroke-width="1.5"/>
<text x="480.0" y="700.5" text-anchor="middle" font-size="13" font-weight="600" fill="#1f2937">ReLU</text>
<circle cx="480.0" cy="800.0" r="22" fill="rgb(220, 245, 249)" stroke="#06b6d4" stroke-width="1.5"/>
<text x="480.0" y="808.0" text-anchor="middle" font-size="24" fill="#06b6d4">∥</text>
<rect x="396.0" y="880.0" width="168" height="48" rx="10" fill="rgb(222, 245, 243)" stroke="#14b8a6" stroke-width="1.5"/>
<text x="480.0" y="908.5" text-anchor="middle" font-size="13" font-weight="600" fill="#1f2937">Predict</text>
<rect x="396.0" y="984.0" width="168" height="48" rx="10" fill="rgb(222, 245, 237)" stroke="#10b981" stroke-width="1.5"/>
<text x="480.0" y="1012.5" text-anchor="middle" font-size="13" font-weight="600" fill="#1f2937">Sigmoid</text>
<rect x="396.0" y="1088.0" width="168" height="48" rx="10" fill="rgb(253, 229, 229)" stroke="#ef4444" stroke-width="1.5"/>
<text x="480.0" y="1116.5" text-anchor="middle" font-size="13" font-weight="600" fill="#1f2937">P(rating)</text>
<text x="912.0" y="1197.0" text-anchor="end" font-size="11" fill="#9aa6b8">Made with Neurarch · neurarch.com</text>
</svg>