<svg xmlns="http://www.w3.org/2000/svg" width="264" height="1416" viewBox="0 0 264 1416" font-family="-apple-system, 'Segoe UI', Inter, Helvetica, Arial, sans-serif">
<defs><marker id="arrow" viewBox="0 0 10 10" refX="8" refY="5" markerWidth="7" markerHeight="7" orient="auto-start-reverse"><path d="M0,0 L10,5 L0,10 z" fill="#94a3b8"/></marker></defs>
<rect x="0" y="0" width="264" height="1416" fill="#ffffff"/>
<path d="M132.0,96.0 C132.0,121.0 132.0,121.0 132.0,146.0" fill="none" stroke="#94a3b8" stroke-width="1.4" marker-end="url(#arrow)"/>
<path d="M132.0,200.0 C132.0,225.0 132.0,225.0 132.0,250.0" fill="none" stroke="#94a3b8" stroke-width="1.4" marker-end="url(#arrow)"/>
<path d="M132.0,304.0 C132.0,329.0 132.0,329.0 132.0,354.0" fill="none" stroke="#94a3b8" stroke-width="1.4" marker-end="url(#arrow)"/>
<path d="M132.0,408.0 C132.0,433.0 132.0,433.0 132.0,458.0" fill="none" stroke="#94a3b8" stroke-width="1.4" marker-end="url(#arrow)"/>
<path d="M132.0,512.0 C132.0,537.0 132.0,537.0 132.0,562.0" fill="none" stroke="#94a3b8" stroke-width="1.4" marker-end="url(#arrow)"/>
<path d="M132.0,616.0 C132.0,641.0 132.0,641.0 132.0,666.0" fill="none" stroke="#94a3b8" stroke-width="1.4" marker-end="url(#arrow)"/>
<path d="M132.0,408.0 C132.0,537.0 132.0,537.0 132.0,666.0" fill="none" stroke="#94a3b8" stroke-width="1.4" marker-end="url(#arrow)"/>
<path d="M132.0,720.0 C132.0,745.0 132.0,745.0 132.0,770.0" fill="none" stroke="#94a3b8" stroke-width="1.4" marker-end="url(#arrow)"/>
<path d="M132.0,824.0 C132.0,849.0 132.0,849.0 132.0,874.0" fill="none" stroke="#94a3b8" stroke-width="1.4" marker-end="url(#arrow)"/>
<path d="M132.0,928.0 C132.0,953.0 132.0,953.0 132.0,978.0" fill="none" stroke="#94a3b8" stroke-width="1.4" marker-end="url(#arrow)"/>
<path d="M132.0,720.0 C132.0,849.0 132.0,849.0 132.0,978.0" fill="none" stroke="#94a3b8" stroke-width="1.4" marker-end="url(#arrow)"/>
<path d="M132.0,1032.0 C132.0,1057.0 132.0,1057.0 132.0,1082.0" fill="none" stroke="#94a3b8" stroke-width="1.4" marker-end="url(#arrow)"/>
<path d="M132.0,1136.0 C132.0,1161.0 132.0,1161.0 132.0,1186.0" fill="none" stroke="#94a3b8" stroke-width="1.4" marker-end="url(#arrow)"/>
<path d="M132.0,1240.0 C132.0,1265.0 132.0,1265.0 132.0,1290.0" fill="none" stroke="#94a3b8" stroke-width="1.4" marker-end="url(#arrow)"/>
<rect x="48.0" y="48.0" width="168" height="48" rx="10" fill="rgb(224, 247, 232)" stroke="#22c55e" stroke-width="1.5"/>
<text x="132.0" y="76.5" text-anchor="middle" font-size="13" font-weight="600" fill="#1f2937">image</text>
<rect x="48.0" y="152.0" width="168" height="48" rx="10" fill="rgb(235, 235, 236)" stroke="#71717a" stroke-width="1.5"/>
<text x="132.0" y="180.5" text-anchor="middle" font-size="13" font-weight="600" fill="#1f2937">patch_embed</text>
<rect x="48.0" y="256.0" width="168" height="48" rx="10" fill="rgb(254, 241, 221)" stroke="#f59e0b" stroke-width="1.5"/>
<text x="132.0" y="284.5" text-anchor="middle" font-size="13" font-weight="600" fill="#1f2937">pos_embed</text>
<rect x="48.0" y="360.0" width="168" height="48" rx="10" fill="rgb(240, 242, 245)" stroke="#94a3b8" stroke-width="1.5"/>
<text x="132.0" y="388.5" text-anchor="middle" font-size="13" font-weight="600" fill="#1f2937">dropout</text>
<rect x="48.0" y="464.0" width="168" height="48" rx="10" fill="rgb(233, 236, 239)" stroke="#64748b" stroke-width="1.5"/>
<text x="132.0" y="492.5" text-anchor="middle" font-size="13" font-weight="600" fill="#1f2937">norm_1</text>
<rect x="48.0" y="568.0" width="168" height="48" rx="10" fill="rgb(243, 231, 254)" stroke="#a855f7" stroke-width="1.5"/>
<text x="132.0" y="596.5" text-anchor="middle" font-size="13" font-weight="600" fill="#1f2937">attn</text>
<circle cx="132.0" cy="696.0" r="22" fill="rgb(220, 245, 249)" stroke="#06b6d4" stroke-width="1.5"/>
<text x="132.0" y="704.0" text-anchor="middle" font-size="24" fill="#06b6d4">⊕</text>
<rect x="48.0" y="776.0" width="168" height="48" rx="10" fill="rgb(233, 236, 239)" stroke="#64748b" stroke-width="1.5"/>
<text x="132.0" y="804.5" text-anchor="middle" font-size="13" font-weight="600" fill="#1f2937">norm_2</text>
<rect x="48.0" y="880.0" width="168" height="48" rx="10" fill="rgb(222, 245, 243)" stroke="#14b8a6" stroke-width="1.5"/>
<text x="132.0" y="908.5" text-anchor="middle" font-size="13" font-weight="600" fill="#1f2937">mlp</text>
<circle cx="132.0" cy="1008.0" r="22" fill="rgb(220, 245, 249)" stroke="#06b6d4" stroke-width="1.5"/>
<text x="132.0" y="1016.0" text-anchor="middle" font-size="24" fill="#06b6d4">⊕</text>
<rect x="48.0" y="1088.0" width="168" height="48" rx="10" fill="rgb(233, 236, 239)" stroke="#64748b" stroke-width="1.5"/>
<text x="132.0" y="1116.5" text-anchor="middle" font-size="13" font-weight="600" fill="#1f2937">norm_final</text>
<rect x="48.0" y="1192.0" width="168" height="48" rx="10" fill="rgb(222, 245, 243)" stroke="#14b8a6" stroke-width="1.5"/>
<text x="132.0" y="1220.5" text-anchor="middle" font-size="13" font-weight="600" fill="#1f2937">head</text>
<rect x="48.0" y="1296.0" width="168" height="48" rx="10" fill="rgb(253, 229, 229)" stroke="#ef4444" stroke-width="1.5"/>
<text x="132.0" y="1324.5" text-anchor="middle" font-size="13" font-weight="600" fill="#1f2937">class_logits</text>
<text x="216.0" y="1405.0" text-anchor="end" font-size="11" fill="#9aa6b8">Made with Neurarch · neurarch.com</text>
</svg>