<svg xmlns="http://www.w3.org/2000/svg" width="1888" height="168" viewBox="0 0 1888 168" font-family="-apple-system, 'Segoe UI', Inter, Helvetica, Arial, sans-serif">
<defs><marker id="arrow" viewBox="0 0 10 10" refX="8" refY="5" markerWidth="7" markerHeight="7" orient="auto-start-reverse"><path d="M0,0 L10,5 L0,10 z" fill="#94a3b8"/></marker></defs>
<rect x="0" y="0" width="1888" height="168" fill="#ffffff"/>
<rect x="48.0" y="48.0" width="168" height="48" rx="10" fill="rgb(224, 247, 232)" stroke="#22c55e" stroke-width="1.5"/>
<text x="132.0" y="76.5" text-anchor="middle" font-size="13" font-weight="600" fill="#1f2937">Input</text>
<rect x="280.0" y="48.0" width="168" height="48" rx="10" fill="rgb(243, 231, 254)" stroke="#a855f7" stroke-width="1.5"/>
<text x="364.0" y="76.5" text-anchor="middle" font-size="13" font-weight="600" fill="#1f2937">MultiHeadAttention</text>
<circle cx="596.0" cy="72.0" r="22" fill="rgb(220, 245, 249)" stroke="#06b6d4" stroke-width="1.5"/>
<text x="596.0" y="80.0" text-anchor="middle" font-size="24" fill="#06b6d4">⊕</text>
<rect x="744.0" y="48.0" width="168" height="48" rx="10" fill="rgb(233, 236, 239)" stroke="#64748b" stroke-width="1.5"/>
<text x="828.0" y="76.5" text-anchor="middle" font-size="13" font-weight="600" fill="#1f2937">LayerNorm_1</text>
<rect x="976.0" y="48.0" width="168" height="48" rx="10" fill="rgb(222, 245, 243)" stroke="#14b8a6" stroke-width="1.5"/>
<text x="1060.0" y="76.5" text-anchor="middle" font-size="13" font-weight="600" fill="#1f2937">FeedForward</text>
<circle cx="1292.0" cy="72.0" r="22" fill="rgb(220, 245, 249)" stroke="#06b6d4" stroke-width="1.5"/>
<text x="1292.0" y="80.0" text-anchor="middle" font-size="24" fill="#06b6d4">⊕</text>
<rect x="1440.0" y="48.0" width="168" height="48" rx="10" fill="rgb(233, 236, 239)" stroke="#64748b" stroke-width="1.5"/>
<text x="1524.0" y="76.5" text-anchor="middle" font-size="13" font-weight="600" fill="#1f2937">LayerNorm_2</text>
<rect x="1672.0" y="48.0" width="168" height="48" rx="10" fill="rgb(253, 229, 229)" stroke="#ef4444" stroke-width="1.5"/>
<text x="1756.0" y="76.5" text-anchor="middle" font-size="13" font-weight="600" fill="#1f2937">Output</text>
<text x="1840.0" y="157.0" text-anchor="end" font-size="11" fill="#9aa6b8">Made with Neurarch · neurarch.com</text>
</svg>